<svg xmlns="http://www.w3.org/2000/svg" xmlns:xlink="http://www.w3.org/1999/xlink" width="100" zoomAndPan="magnify" viewBox="0 0 75 37.5" height="50" preserveAspectRatio="xMidYMid meet" version="1.0"><defs><g/></defs><g fill="#ffffff" fill-opacity="1"><g transform="translate(3.140938, 23.237066)"><g><path d="M 2.355469 2.222656 L 2.726562 0 L 7.082031 0 C 7.773438 0 8.242188 -0.0195312 8.503906 -0.0546875 C 8.839844 -0.113281 9.082031 -0.207031 9.230469 -0.355469 C 9.417969 -0.523438 9.550781 -0.804688 9.625 -1.195312 C 9.679688 -1.457031 9.753906 -1.925781 9.847656 -2.636719 C 10.167969 -4.859375 10.351562 -6.1875 10.410156 -6.632812 C 10.519531 -7.269531 10.578125 -7.679688 10.578125 -7.90625 C 10.597656 -8.054688 10.597656 -8.167969 10.597656 -8.261719 C 10.597656 -8.484375 10.578125 -8.671875 10.503906 -8.800781 C 10.390625 -9.0625 10.035156 -9.195312 9.457031 -9.230469 C 9.230469 -9.269531 8.800781 -9.269531 8.167969 -9.269531 L 3.960938 -9.269531 C 3.234375 -9.269531 2.726562 -9.25 2.46875 -9.214844 C 2.019531 -9.175781 1.699219 -9.046875 1.515625 -8.820312 C 1.382812 -8.652344 1.269531 -8.371094 1.175781 -7.960938 C 1.140625 -7.738281 1.082031 -7.308594 0.992188 -6.632812 L 0.898438 -5.941406 L 0.0742188 0 L -0.261719 2.636719 C -0.28125 2.785156 -0.300781 2.878906 -0.316406 2.933594 C -0.335938 3.007812 -0.375 3.101562 -0.449219 3.175781 C -0.484375 3.25 -0.5625 3.328125 -0.671875 3.4375 C -0.746094 3.511719 -0.898438 3.625 -1.121094 3.8125 L -0.222656 3.8125 C 0.0390625 3.8125 0.261719 3.792969 0.449219 3.773438 C 0.746094 3.738281 0.992188 3.71875 1.195312 3.644531 C 1.421875 3.570312 1.589844 3.476562 1.71875 3.382812 C 1.925781 3.234375 2.074219 3.027344 2.1875 2.804688 C 2.261719 2.636719 2.316406 2.449219 2.355469 2.222656 Z M 3.082031 -2.636719 L 3.550781 -5.941406 C 3.589844 -6.128906 3.625 -6.261719 3.644531 -6.316406 C 3.679688 -6.429688 3.699219 -6.484375 3.738281 -6.523438 C 3.792969 -6.578125 3.886719 -6.617188 4 -6.617188 C 4.074219 -6.632812 4.203125 -6.632812 4.410156 -6.632812 L 7.753906 -6.632812 L 7.289062 -3.308594 C 7.269531 -3.140625 7.25 -3.027344 7.230469 -2.953125 C 7.214844 -2.859375 7.175781 -2.785156 7.121094 -2.726562 C 7.082031 -2.710938 7.046875 -2.691406 6.988281 -2.652344 C 6.953125 -2.652344 6.894531 -2.652344 6.820312 -2.636719 Z M 3.082031 -2.636719 "/></g></g></g><g fill="#ffffff" fill-opacity="1"><g transform="translate(13.904804, 23.237066)"><g><path d="M 0.914062 -6.652344 C 0.617188 -4.371094 0.429688 -3.046875 0.355469 -2.652344 C 0.261719 -1.960938 0.207031 -1.496094 0.1875 -1.253906 L 0.1875 -1.027344 C 0.1875 -0.765625 0.242188 -0.5625 0.316406 -0.410156 C 0.429688 -0.261719 0.617188 -0.148438 0.914062 -0.09375 C 1.175781 -0.0546875 1.699219 -0.0195312 2.503906 -0.0195312 L 6.894531 -0.0195312 C 7.738281 -0.0195312 8.277344 -0.0546875 8.539062 -0.09375 C 8.894531 -0.167969 9.136719 -0.300781 9.289062 -0.523438 C 9.398438 -0.691406 9.492188 -0.953125 9.566406 -1.289062 C 9.625 -1.53125 9.699219 -1.980469 9.792969 -2.652344 L 10.351562 -6.652344 C 10.464844 -7.363281 10.519531 -7.847656 10.519531 -8.074219 L 10.519531 -8.261719 C 10.519531 -8.539062 10.484375 -8.746094 10.390625 -8.875 C 10.296875 -9.027344 10.128906 -9.136719 9.90625 -9.175781 C 9.644531 -9.25 9.0625 -9.269531 8.148438 -9.269531 L 3.851562 -9.269531 C 3.101562 -9.269531 2.597656 -9.269531 2.335938 -9.230469 C 1.960938 -9.195312 1.699219 -9.082031 1.53125 -8.894531 C 1.34375 -8.707031 1.195312 -8.335938 1.082031 -7.753906 C 1.046875 -7.570312 0.992188 -7.195312 0.914062 -6.652344 Z M 4.484375 -6.652344 L 7.699219 -6.652344 L 7.230469 -3.328125 C 7.195312 -3.101562 7.175781 -2.972656 7.140625 -2.898438 C 7.140625 -2.820312 7.101562 -2.765625 7.0625 -2.726562 C 7.027344 -2.691406 6.96875 -2.671875 6.894531 -2.652344 L 3.007812 -2.652344 L 3.476562 -5.960938 C 3.496094 -6.074219 3.511719 -6.167969 3.511719 -6.203125 C 3.550781 -6.371094 3.589844 -6.484375 3.625 -6.523438 C 3.679688 -6.578125 3.773438 -6.617188 3.886719 -6.632812 C 3.980469 -6.652344 4.1875 -6.652344 4.484375 -6.652344 Z M 4.484375 -6.652344 "/></g></g></g><g fill="#ffffff" fill-opacity="1"><g transform="translate(24.59392, 23.237066)"><g><path d="M 8.222656 -10.445312 L 8.054688 -9.269531 L 3.699219 -9.269531 C 2.988281 -9.269531 2.484375 -9.25 2.222656 -9.195312 C 1.925781 -9.15625 1.683594 -9.046875 1.53125 -8.894531 C 1.382812 -8.746094 1.269531 -8.503906 1.175781 -8.167969 C 1.121094 -7.921875 1.046875 -7.417969 0.933594 -6.632812 C 0.859375 -6.1875 0.765625 -5.53125 0.636719 -4.632812 C 0.523438 -3.738281 0.429688 -3.082031 0.375 -2.636719 C 0.300781 -2.035156 0.242188 -1.644531 0.207031 -1.421875 C 0.207031 -1.269531 0.1875 -1.121094 0.1875 -1.007812 C 0.1875 -0.710938 0.261719 -0.484375 0.375 -0.335938 C 0.484375 -0.222656 0.671875 -0.128906 0.933594 -0.0742188 C 1.195312 -0.0390625 1.757812 0 2.617188 0 L 6.800781 0 C 7.644531 0 8.203125 -0.0195312 8.464844 -0.0546875 C 8.746094 -0.113281 8.953125 -0.1875 9.101562 -0.28125 C 9.304688 -0.429688 9.457031 -0.710938 9.550781 -1.082031 C 9.625 -1.328125 9.699219 -1.851562 9.792969 -2.636719 L 9.886719 -3.328125 L 11.25 -13.082031 C 10.445312 -13.082031 9.921875 -13.082031 9.660156 -13.042969 C 9.304688 -13.007812 9.046875 -12.894531 8.875 -12.746094 C 8.726562 -12.613281 8.597656 -12.371094 8.503906 -12.035156 C 8.429688 -11.773438 8.335938 -11.25 8.222656 -10.445312 Z M 4.222656 -6.632812 L 7.679688 -6.632812 L 7.230469 -3.328125 C 7.195312 -3.140625 7.175781 -3.027344 7.140625 -2.953125 C 7.121094 -2.839844 7.082031 -2.765625 7.027344 -2.726562 C 6.988281 -2.691406 6.933594 -2.671875 6.859375 -2.652344 C 6.785156 -2.652344 6.632812 -2.636719 6.371094 -2.636719 L 3.027344 -2.636719 L 3.496094 -5.941406 C 3.53125 -6.128906 3.550781 -6.261719 3.550781 -6.316406 C 3.589844 -6.429688 3.605469 -6.484375 3.644531 -6.523438 C 3.679688 -6.578125 3.757812 -6.617188 3.832031 -6.617188 C 3.90625 -6.632812 4.035156 -6.632812 4.222656 -6.632812 Z M 4.222656 -6.632812 "/></g></g></g><g fill="#ffffff" fill-opacity="1"><g transform="translate(35.451225, 23.237066)"><g><path d="M 0.914062 -6.652344 C 0.617188 -4.371094 0.429688 -3.046875 0.355469 -2.652344 C 0.261719 -1.960938 0.207031 -1.496094 0.1875 -1.253906 L 0.1875 -1.027344 C 0.1875 -0.765625 0.242188 -0.5625 0.316406 -0.410156 C 0.429688 -0.261719 0.617188 -0.148438 0.914062 -0.09375 C 1.175781 -0.0546875 1.699219 -0.0195312 2.503906 -0.0195312 L 6.894531 -0.0195312 C 7.738281 -0.0195312 8.277344 -0.0546875 8.539062 -0.09375 C 8.894531 -0.167969 9.136719 -0.300781 9.289062 -0.523438 C 9.398438 -0.691406 9.492188 -0.953125 9.566406 -1.289062 C 9.625 -1.53125 9.699219 -1.980469 9.792969 -2.652344 L 10.351562 -6.652344 C 10.464844 -7.363281 10.519531 -7.847656 10.519531 -8.074219 L 10.519531 -8.261719 C 10.519531 -8.539062 10.484375 -8.746094 10.390625 -8.875 C 10.296875 -9.027344 10.128906 -9.136719 9.90625 -9.175781 C 9.644531 -9.25 9.0625 -9.269531 8.148438 -9.269531 L 3.851562 -9.269531 C 3.101562 -9.269531 2.597656 -9.269531 2.335938 -9.230469 C 1.960938 -9.195312 1.699219 -9.082031 1.53125 -8.894531 C 1.34375 -8.707031 1.195312 -8.335938 1.082031 -7.753906 C 1.046875 -7.570312 0.992188 -7.195312 0.914062 -6.652344 Z M 4.484375 -6.652344 L 7.699219 -6.652344 L 7.230469 -3.328125 C 7.195312 -3.101562 7.175781 -2.972656 7.140625 -2.898438 C 7.140625 -2.820312 7.101562 -2.765625 7.0625 -2.726562 C 7.027344 -2.691406 6.96875 -2.671875 6.894531 -2.652344 L 3.007812 -2.652344 L 3.476562 -5.960938 C 3.496094 -6.074219 3.511719 -6.167969 3.511719 -6.203125 C 3.550781 -6.371094 3.589844 -6.484375 3.625 -6.523438 C 3.679688 -6.578125 3.773438 -6.617188 3.886719 -6.632812 C 3.980469 -6.652344 4.1875 -6.652344 4.484375 -6.652344 Z M 4.484375 -6.652344 "/></g></g></g><g fill="#ffffff" fill-opacity="1"><g transform="translate(46.140341, 23.237066)"><g><path d="M 0.914062 -6.632812 L 0.824219 -5.941406 C 0.710938 -5.214844 0.636719 -4.726562 0.597656 -4.464844 L 0.597656 -4.242188 C 0.597656 -3.941406 0.671875 -3.738281 0.785156 -3.605469 C 0.933594 -3.476562 1.175781 -3.382812 1.550781 -3.34375 C 1.773438 -3.328125 2.148438 -3.308594 2.652344 -3.308594 L 7.230469 -3.308594 C 7.214844 -3.140625 7.195312 -3.027344 7.175781 -2.953125 C 7.175781 -2.859375 7.140625 -2.785156 7.101562 -2.726562 C 7.0625 -2.691406 7.007812 -2.671875 6.933594 -2.636719 L 0.355469 -2.636719 C 0.242188 -1.8125 0.1875 -1.269531 0.1875 -1.007812 C 0.1875 -0.730469 0.222656 -0.523438 0.316406 -0.375 C 0.429688 -0.242188 0.597656 -0.148438 0.824219 -0.09375 C 1.082031 -0.0390625 1.683594 0 2.652344 0 L 6.765625 0 C 7.71875 0 8.335938 -0.0390625 8.597656 -0.09375 C 8.875 -0.148438 9.082031 -0.261719 9.230469 -0.429688 C 9.34375 -0.5625 9.417969 -0.730469 9.492188 -0.992188 C 9.566406 -1.253906 9.679688 -1.8125 9.792969 -2.636719 L 9.886719 -3.308594 C 9.980469 -4.054688 10.035156 -4.542969 10.035156 -4.765625 L 10.035156 -4.878906 C 10.035156 -5.234375 9.980469 -5.476562 9.847656 -5.605469 C 9.71875 -5.773438 9.457031 -5.867188 9.046875 -5.90625 C 8.820312 -5.941406 8.335938 -5.941406 7.585938 -5.941406 L 3.476562 -5.941406 C 3.511719 -6.148438 3.53125 -6.277344 3.53125 -6.335938 C 3.550781 -6.410156 3.570312 -6.464844 3.605469 -6.503906 C 3.644531 -6.558594 3.71875 -6.597656 3.792969 -6.617188 C 3.867188 -6.632812 4.054688 -6.632812 4.316406 -6.632812 L 7.980469 -6.632812 C 8.578125 -6.632812 9.007812 -6.652344 9.230469 -6.671875 C 9.492188 -6.707031 9.679688 -6.746094 9.828125 -6.820312 C 10.089844 -6.953125 10.277344 -7.195312 10.390625 -7.570312 C 10.484375 -7.832031 10.597656 -8.390625 10.707031 -9.25 L 3.773438 -9.25 C 3.101562 -9.25 2.636719 -9.25 2.375 -9.214844 C 2.035156 -9.175781 1.792969 -9.101562 1.625 -8.96875 C 1.4375 -8.839844 1.289062 -8.578125 1.195312 -8.203125 C 1.121094 -7.960938 1.027344 -7.4375 0.914062 -6.632812 Z M 0.914062 -6.632812 "/></g></g></g><g fill="#ffffff" fill-opacity="1"><g transform="translate(56.754711, 23.237066)"><g><path d="M 2.019531 -13.101562 L 1.664062 -10.464844 L 1.496094 -9.269531 L 1.121094 -6.632812 L 1.027344 -5.960938 L 0.652344 -3.328125 L 0.5625 -2.636719 L 0.1875 -0.0195312 C 1.007812 -0.0195312 1.550781 -0.0390625 1.8125 -0.0546875 C 2.222656 -0.128906 2.503906 -0.261719 2.671875 -0.449219 C 2.820312 -0.636719 2.914062 -0.898438 2.988281 -1.269531 C 3.046875 -1.515625 3.121094 -1.960938 3.214844 -2.636719 L 3.308594 -3.328125 L 7.417969 -3.328125 L 7.324219 -2.636719 L 6.953125 -0.0195312 C 7.941406 -0.0195312 8.578125 -0.0546875 8.839844 -0.113281 C 9.15625 -0.1875 9.382812 -0.335938 9.511719 -0.5625 C 9.625 -0.746094 9.71875 -1.007812 9.773438 -1.363281 C 9.828125 -1.589844 9.90625 -2.019531 9.980469 -2.636719 L 10.074219 -3.328125 C 10.089844 -3.457031 10.089844 -3.570312 10.089844 -3.679688 C 10.089844 -3.867188 10.074219 -4.019531 10.015625 -4.148438 C 9.960938 -4.296875 9.886719 -4.410156 9.773438 -4.484375 C 9.699219 -4.558594 9.585938 -4.617188 9.4375 -4.652344 C 9.605469 -4.710938 9.753906 -4.785156 9.867188 -4.859375 C 9.980469 -4.933594 10.054688 -5.027344 10.128906 -5.140625 C 10.222656 -5.25 10.296875 -5.382812 10.335938 -5.53125 C 10.390625 -5.664062 10.429688 -5.8125 10.445312 -5.960938 L 10.914062 -9.289062 C 10.128906 -9.289062 9.605469 -9.269531 9.34375 -9.230469 C 9.007812 -9.195312 8.765625 -9.121094 8.578125 -8.988281 C 8.390625 -8.839844 8.242188 -8.578125 8.128906 -8.167969 C 8.074219 -7.921875 8 -7.417969 7.886719 -6.652344 L 7.792969 -5.960938 L 3.679688 -5.960938 L 3.773438 -6.632812 L 4.148438 -9.269531 L 4.316406 -10.464844 C 4.390625 -10.988281 4.429688 -11.363281 4.449219 -11.550781 C 4.484375 -11.773438 4.484375 -11.941406 4.484375 -12.074219 C 4.484375 -12.371094 4.449219 -12.578125 4.335938 -12.707031 C 4.242188 -12.875 4.035156 -12.988281 3.699219 -13.027344 C 3.457031 -13.082031 2.898438 -13.101562 2.019531 -13.101562 Z M 2.019531 -13.101562 "/></g></g></g><g fill="#ffffff" fill-opacity="1"><g transform="translate(67.555953, 23.237066)"><g><path d="M 4.671875 -13.082031 C 3.792969 -13.082031 3.214844 -13.0625 2.953125 -13.027344 C 2.652344 -12.988281 2.410156 -12.875 2.261719 -12.726562 C 2.113281 -12.578125 1.980469 -12.296875 1.886719 -11.886719 C 1.832031 -11.660156 1.757812 -11.175781 1.644531 -10.464844 L 1.589844 -9.960938 L 4.242188 -9.960938 Z M 1.496094 -9.269531 L 0.859375 -4.746094 L 0.1875 0 C 1.121094 0 1.71875 -0.0390625 1.980469 -0.09375 C 2.335938 -0.167969 2.578125 -0.316406 2.726562 -0.542969 C 2.839844 -0.710938 2.933594 -0.953125 2.988281 -1.289062 C 3.046875 -1.53125 3.121094 -1.980469 3.214844 -2.617188 L 3.605469 -5.496094 L 4.148438 -9.269531 Z M 1.496094 -9.269531 "/></g></g></g><path stroke-linecap="butt" transform="matrix(0.740132, 0, 0, 0.740132, 3.140938, 28.859826)" fill="none" stroke-linejoin="miter" d="M -0.00042272 1.002168 L 56.482357 1.002168 " stroke="#ffffff" stroke-width="2" stroke-opacity="1" stroke-miterlimit="4"/><path stroke-linecap="butt" transform="matrix(0.740132, 0, 0, 0.740132, 30.055883, 6.666489)" fill="none" stroke-linejoin="miter" d="M -0.00161558 0.999499 L 56.481165 0.999499 " stroke="#ffffff" stroke-width="2" stroke-opacity="1" stroke-miterlimit="4"/></svg>