<svg xmlns="http://www.w3.org/2000/svg" xmlns:xlink="http://www.w3.org/1999/xlink" width="100" zoomAndPan="magnify" viewBox="0 0 75 37.5" height="50" preserveAspectRatio="xMidYMid meet" version="1.0"><defs><g/><clipPath id="796afecf86"><path d="M 1 0 L 51 0 L 51 37.007812 L 1 37.007812 Z M 1 0 " clip-rule="nonzero"/></clipPath><clipPath id="b29d82eeab"><path d="M 60.53125 8.933594 L 61.277344 8.933594 L 61.277344 9.683594 L 60.53125 9.683594 Z M 60.53125 8.933594 " clip-rule="nonzero"/></clipPath><clipPath id="35d2c2ab54"><path d="M 60.902344 8.933594 C 60.695312 8.933594 60.53125 9.101562 60.53125 9.308594 C 60.53125 9.515625 60.695312 9.683594 60.902344 9.683594 C 61.109375 9.683594 61.277344 9.515625 61.277344 9.308594 C 61.277344 9.101562 61.109375 8.933594 60.902344 8.933594 Z M 60.902344 8.933594 " clip-rule="nonzero"/></clipPath></defs><g clip-path="url(#796afecf86)"><g fill="#ffffff" fill-opacity="1"><g transform="translate(11.537443, 24.867483)"><g><path d="M 35.421875 -15.578125 C 35.554688 -15.578125 35.660156 -15.539062 35.734375 -15.46875 C 35.816406 -15.40625 35.84375 -15.335938 35.8125 -15.265625 C 35.78125 -15.191406 35.738281 -15.140625 35.6875 -15.109375 C 35.632812 -15.085938 35.578125 -15.078125 35.515625 -15.078125 C 35.429688 -15.066406 35.335938 -15.0625 35.234375 -15.0625 C 34.035156 -14.894531 32.453125 -14.5625 30.484375 -14.0625 C 28.523438 -13.570312 26.953125 -13.144531 25.765625 -12.78125 C 24.835938 -12.5 23.921875 -12.210938 23.015625 -11.921875 C 22.992188 -11.910156 22.96875 -11.898438 22.9375 -11.890625 C 22.550781 -11.765625 22.21875 -11.566406 21.9375 -11.296875 C 20.863281 -10.285156 19.742188 -9.34375 18.578125 -8.46875 C 17.421875 -7.601562 16.226562 -6.78125 15 -6 C 13.007812 -4.695312 10.945312 -3.515625 8.8125 -2.453125 C 8.382812 -2.253906 8.09375 -1.921875 7.9375 -1.453125 C 7.28125 0.691406 6.566406 2.796875 5.796875 4.859375 C 5.097656 6.703125 4.453125 8.5625 3.859375 10.4375 C 3.859375 10.445312 3.851562 10.457031 3.84375 10.46875 C 3.820312 10.570312 3.789062 10.660156 3.75 10.734375 C 3.664062 10.816406 3.566406 10.859375 3.453125 10.859375 C 3.390625 10.890625 3.320312 10.898438 3.25 10.890625 C 3.101562 10.859375 3.015625 10.765625 2.984375 10.609375 C 2.960938 10.367188 3.003906 10.128906 3.109375 9.890625 C 3.117188 9.890625 3.125 9.878906 3.125 9.859375 C 3.757812 8.117188 4.375 6.375 4.96875 4.625 C 5.570312 2.882812 6.144531 1.125 6.6875 -0.65625 C 6.726562 -0.8125 6.769531 -0.960938 6.8125 -1.109375 C 6.832031 -1.179688 6.851562 -1.265625 6.875 -1.359375 C 6.78125 -1.367188 6.703125 -1.375 6.640625 -1.375 C 6.523438 -1.332031 6.410156 -1.273438 6.296875 -1.203125 C 6.242188 -1.179688 6.203125 -1.15625 6.171875 -1.125 C 4.691406 -0.425781 3.175781 0.207031 1.625 0.78125 C 0.550781 1.15625 -0.535156 1.476562 -1.640625 1.75 C -1.691406 1.757812 -1.742188 1.769531 -1.796875 1.78125 C -1.910156 1.8125 -2.019531 1.835938 -2.125 1.859375 C -2.550781 1.921875 -2.984375 1.921875 -3.421875 1.859375 C -3.753906 1.785156 -3.96875 1.632812 -4.0625 1.40625 C -4.15625 1.175781 -4.117188 0.90625 -3.953125 0.59375 C -3.734375 0.21875 -3.453125 -0.0976562 -3.109375 -0.359375 C -2.328125 -1.046875 -1.492188 -1.632812 -0.609375 -2.125 C 1.765625 -3.5 4.195312 -4.753906 6.6875 -5.890625 C 6.820312 -5.972656 6.960938 -6.039062 7.109375 -6.09375 C 7.429688 -6.21875 7.726562 -6.367188 8 -6.546875 C 8.269531 -6.722656 8.453125 -6.984375 8.546875 -7.328125 C 8.878906 -8.679688 9.195312 -10.03125 9.5 -11.375 C 9.8125 -12.71875 10.078125 -14.082031 10.296875 -15.46875 C 10.296875 -15.476562 10.300781 -15.492188 10.3125 -15.515625 C 10.332031 -15.753906 10.382812 -15.988281 10.46875 -16.21875 C 10.5 -16.289062 10.546875 -16.347656 10.609375 -16.390625 C 10.679688 -16.441406 10.757812 -16.460938 10.84375 -16.453125 C 10.894531 -16.484375 10.957031 -16.492188 11.03125 -16.484375 C 11.207031 -16.460938 11.320312 -16.363281 11.375 -16.1875 C 11.425781 -15.851562 11.414062 -15.507812 11.34375 -15.15625 C 11.34375 -15.144531 11.34375 -15.128906 11.34375 -15.109375 C 11.0625 -13.347656 10.710938 -11.601562 10.296875 -9.875 C 10.191406 -9.40625 10.082031 -8.9375 9.96875 -8.46875 C 9.914062 -8.300781 9.875 -8.128906 9.84375 -7.953125 C 9.78125 -7.734375 9.757812 -7.585938 9.78125 -7.515625 C 9.8125 -7.441406 9.875 -7.414062 9.96875 -7.4375 C 10.0625 -7.457031 10.164062 -7.503906 10.28125 -7.578125 C 10.320312 -7.585938 10.359375 -7.601562 10.390625 -7.625 C 10.867188 -7.832031 11.34375 -8.035156 11.8125 -8.234375 C 12.675781 -8.609375 13.539062 -8.972656 14.40625 -9.328125 C 16.53125 -10.222656 18.679688 -11.035156 20.859375 -11.765625 C 21.253906 -11.898438 21.582031 -12.113281 21.84375 -12.40625 C 22.40625 -12.988281 22.941406 -13.65625 23.453125 -14.40625 C 23.960938 -15.164062 24.359375 -15.953125 24.640625 -16.765625 C 24.929688 -17.585938 24.992188 -18.390625 24.828125 -19.171875 C 24.660156 -19.960938 24.171875 -20.695312 23.359375 -21.375 C 22.835938 -21.757812 22.265625 -22.066406 21.640625 -22.296875 C 20.335938 -22.734375 18.820312 -22.96875 17.09375 -23 C 15.363281 -23.03125 13.539062 -22.894531 11.625 -22.59375 C 9.707031 -22.300781 7.800781 -21.894531 5.90625 -21.375 C 4.019531 -20.851562 2.265625 -20.265625 0.640625 -19.609375 C -0.972656 -18.960938 -2.34375 -18.300781 -3.46875 -17.625 C -4.4375 -17.050781 -5.335938 -16.378906 -6.171875 -15.609375 C -6.523438 -15.316406 -6.84375 -15.003906 -7.125 -14.671875 C -7.414062 -14.335938 -7.660156 -13.972656 -7.859375 -13.578125 C -7.941406 -13.398438 -8.066406 -13.289062 -8.234375 -13.25 C -8.273438 -13.25 -8.316406 -13.242188 -8.359375 -13.234375 C -8.367188 -13.234375 -8.378906 -13.234375 -8.390625 -13.234375 C -8.453125 -13.222656 -8.515625 -13.21875 -8.578125 -13.21875 C -8.640625 -13.226562 -8.695312 -13.257812 -8.75 -13.3125 C -8.78125 -13.351562 -8.796875 -13.394531 -8.796875 -13.4375 C -8.804688 -13.488281 -8.8125 -13.535156 -8.8125 -13.578125 C -8.75 -13.796875 -8.65625 -13.992188 -8.53125 -14.171875 C -8.414062 -14.347656 -8.289062 -14.519531 -8.15625 -14.6875 C -7.8125 -15.101562 -7.441406 -15.488281 -7.046875 -15.84375 C -6.648438 -16.195312 -6.238281 -16.523438 -5.8125 -16.828125 C -4.738281 -17.660156 -3.320312 -18.472656 -1.5625 -19.265625 C 0.1875 -20.066406 2.140625 -20.800781 4.296875 -21.46875 C 6.453125 -22.132812 8.644531 -22.660156 10.875 -23.046875 C 13.101562 -23.441406 15.21875 -23.632812 17.21875 -23.625 C 19.226562 -23.613281 20.988281 -23.335938 22.5 -22.796875 C 23.15625 -22.578125 23.769531 -22.238281 24.34375 -21.78125 C 25.144531 -21.125 25.65625 -20.425781 25.875 -19.6875 C 26.09375 -18.945312 26.109375 -18.203125 25.921875 -17.453125 C 25.742188 -16.703125 25.441406 -15.960938 25.015625 -15.234375 C 24.585938 -14.503906 24.140625 -13.8125 23.671875 -13.15625 C 23.617188 -13.082031 23.5625 -13 23.5 -12.90625 C 23.445312 -12.820312 23.429688 -12.753906 23.453125 -12.703125 C 23.472656 -12.648438 23.5625 -12.644531 23.71875 -12.6875 C 25.539062 -13.289062 27.367188 -13.820312 29.203125 -14.28125 C 31.046875 -14.738281 32.90625 -15.148438 34.78125 -15.515625 C 34.832031 -15.523438 34.878906 -15.53125 34.921875 -15.53125 L 34.9375 -15.53125 C 35.09375 -15.5625 35.253906 -15.578125 35.421875 -15.578125 Z M 7.296875 -2.6875 C 7.316406 -2.800781 7.363281 -2.957031 7.4375 -3.15625 C 7.550781 -3.476562 7.664062 -3.832031 7.78125 -4.21875 C 7.894531 -4.613281 7.96875 -4.953125 8 -5.234375 C 8.039062 -5.523438 7.976562 -5.671875 7.8125 -5.671875 C 7.71875 -5.640625 7.628906 -5.601562 7.546875 -5.5625 C 7.523438 -5.550781 7.492188 -5.539062 7.453125 -5.53125 C 7.128906 -5.363281 6.789062 -5.207031 6.4375 -5.0625 C 5.613281 -4.65625 4.796875 -4.242188 3.984375 -3.828125 C 3.953125 -3.804688 3.910156 -3.78125 3.859375 -3.75 C 2.398438 -3.03125 0.972656 -2.25 -0.421875 -1.40625 C -1.128906 -0.96875 -1.785156 -0.472656 -2.390625 0.078125 C -2.628906 0.265625 -2.8125 0.5 -2.9375 0.78125 C -2.976562 0.894531 -2.976562 0.988281 -2.9375 1.0625 C -2.894531 1.132812 -2.816406 1.179688 -2.703125 1.203125 C -2.460938 1.253906 -2.21875 1.257812 -1.96875 1.21875 C -1.75 1.1875 -1.539062 1.140625 -1.34375 1.078125 C -1.332031 1.078125 -1.328125 1.078125 -1.328125 1.078125 C -0.234375 0.785156 0.820312 0.429688 1.84375 0.015625 C 3.476562 -0.640625 5.082031 -1.351562 6.65625 -2.125 C 6.6875 -2.132812 6.707031 -2.144531 6.71875 -2.15625 C 6.851562 -2.207031 6.96875 -2.269531 7.0625 -2.34375 C 7.164062 -2.425781 7.242188 -2.539062 7.296875 -2.6875 Z M 8.65625 -3.21875 C 9.625 -3.644531 10.914062 -4.347656 12.53125 -5.328125 C 14.144531 -6.316406 15.6875 -7.332031 17.15625 -8.375 C 18.625 -9.425781 19.601562 -10.253906 20.09375 -10.859375 C 20.007812 -10.847656 19.941406 -10.835938 19.890625 -10.828125 C 19.867188 -10.828125 19.851562 -10.828125 19.84375 -10.828125 C 16.457031 -9.566406 13.125 -8.179688 9.84375 -6.671875 C 9.539062 -6.523438 9.359375 -6.300781 9.296875 -6 C 9.160156 -5.53125 9.03125 -5.054688 8.90625 -4.578125 C 8.789062 -4.234375 8.691406 -3.878906 8.609375 -3.515625 C 8.585938 -3.460938 8.578125 -3.40625 8.578125 -3.34375 C 8.585938 -3.289062 8.613281 -3.25 8.65625 -3.21875 Z M 8.65625 -3.21875 "/></g></g></g></g><g fill="#ffffff" fill-opacity="1"><g transform="translate(32.870606, 21.402471)"><g><path d="M 0.90625 -2 L 0.890625 -1.984375 C 0.148438 -1.878906 -0.359375 -1.96875 -0.640625 -2.25 C -0.921875 -2.539062 -0.976562 -2.96875 -0.8125 -3.53125 C -0.664062 -3.96875 -0.453125 -4.359375 -0.171875 -4.703125 C -0.0859375 -4.828125 0.0078125 -4.925781 0.125 -5 C 0.238281 -5.082031 0.367188 -5.140625 0.515625 -5.171875 C 0.585938 -5.191406 0.6875 -5.191406 0.8125 -5.171875 C 0.851562 -5.160156 0.894531 -5.148438 0.9375 -5.140625 C 1 -5.171875 1.070312 -5.210938 1.15625 -5.265625 C 1.164062 -5.285156 1.191406 -5.300781 1.234375 -5.3125 C 1.390625 -5.40625 1.5625 -5.460938 1.75 -5.484375 C 1.832031 -5.492188 1.910156 -5.503906 1.984375 -5.515625 C 2.296875 -5.523438 2.539062 -5.4375 2.71875 -5.25 C 2.90625 -5.070312 3.003906 -4.832031 3.015625 -4.53125 C 3.015625 -4.351562 2.984375 -4.175781 2.921875 -4 C 2.515625 -2.851562 1.859375 -2.1875 0.953125 -2 Z M 1.671875 -4.90625 C 1.265625 -4.863281 0.925781 -4.691406 0.65625 -4.390625 C 0.382812 -4.097656 0.195312 -3.78125 0.09375 -3.4375 C 0 -3.09375 0 -2.820312 0.09375 -2.625 C 0.195312 -2.425781 0.421875 -2.40625 0.765625 -2.5625 C 1.148438 -2.75 1.46875 -3.035156 1.71875 -3.421875 C 1.976562 -3.804688 2.117188 -4.148438 2.140625 -4.453125 C 2.160156 -4.765625 2.003906 -4.914062 1.671875 -4.90625 Z M 1.671875 -4.90625 "/></g></g></g><g fill="#ffffff" fill-opacity="1"><g transform="translate(36.910522, 20.746293)"><g><path d="M 6.09375 -5.109375 C 6.207031 -5.097656 6.269531 -5.066406 6.28125 -5.015625 C 6.289062 -4.960938 6.296875 -4.9375 6.296875 -4.9375 C 6.210938 -4.695312 6.109375 -4.476562 5.984375 -4.28125 C 5.691406 -3.820312 5.328125 -3.4375 4.890625 -3.125 C 4.679688 -2.945312 4.425781 -2.828125 4.125 -2.765625 C 3.445312 -2.648438 3.082031 -2.929688 3.03125 -3.609375 C 3.03125 -3.753906 3.039062 -3.898438 3.0625 -4.046875 C 3.082031 -4.117188 3.09375 -4.1875 3.09375 -4.25 C 3.113281 -4.507812 3.109375 -4.648438 3.078125 -4.671875 C 3.046875 -4.691406 2.976562 -4.609375 2.875 -4.421875 C 2.832031 -4.390625 2.800781 -4.351562 2.78125 -4.3125 C 2.625 -4.03125 2.457031 -3.753906 2.28125 -3.484375 C 1.957031 -2.984375 1.570312 -2.535156 1.125 -2.140625 C 0.851562 -1.921875 0.554688 -1.78125 0.234375 -1.71875 C -0.328125 -1.601562 -0.679688 -1.804688 -0.828125 -2.328125 C -0.890625 -2.535156 -0.910156 -2.742188 -0.890625 -2.953125 C -0.804688 -3.847656 -0.46875 -4.570312 0.125 -5.125 C 0.71875 -5.6875 1.457031 -5.976562 2.34375 -6 C 2.59375 -5.957031 2.757812 -6.046875 2.84375 -6.265625 C 2.882812 -6.359375 2.921875 -6.453125 2.953125 -6.546875 C 3.109375 -6.984375 3.265625 -7.421875 3.421875 -7.859375 C 3.722656 -8.691406 4.023438 -9.535156 4.328125 -10.390625 C 4.566406 -11.046875 4.8125 -11.722656 5.0625 -12.421875 C 5.132812 -12.617188 5.21875 -12.816406 5.3125 -13.015625 C 5.351562 -13.109375 5.410156 -13.171875 5.484375 -13.203125 C 5.566406 -13.242188 5.65625 -13.269531 5.75 -13.28125 C 5.769531 -13.28125 5.789062 -13.285156 5.8125 -13.296875 C 5.90625 -13.304688 5.988281 -13.289062 6.0625 -13.25 C 6.132812 -13.207031 6.160156 -13.140625 6.140625 -13.046875 C 6.097656 -12.828125 6.046875 -12.613281 5.984375 -12.40625 C 5.679688 -11.394531 5.398438 -10.375 5.140625 -9.34375 C 4.890625 -8.320312 4.644531 -7.296875 4.40625 -6.265625 C 4.320312 -5.921875 4.238281 -5.566406 4.15625 -5.203125 C 4.039062 -4.785156 3.96875 -4.359375 3.9375 -3.921875 C 3.914062 -3.828125 3.910156 -3.738281 3.921875 -3.65625 C 3.941406 -3.570312 4 -3.503906 4.09375 -3.453125 C 4.144531 -3.421875 4.203125 -3.421875 4.265625 -3.453125 C 4.328125 -3.492188 4.390625 -3.535156 4.453125 -3.578125 C 4.460938 -3.585938 4.476562 -3.597656 4.5 -3.609375 C 4.925781 -3.960938 5.3125 -4.367188 5.65625 -4.828125 C 5.707031 -4.898438 5.765625 -4.96875 5.828125 -5.03125 C 5.898438 -5.09375 5.988281 -5.117188 6.09375 -5.109375 Z M 2.25 -4.96875 C 2.300781 -5.070312 2.304688 -5.164062 2.265625 -5.25 C 2.222656 -5.332031 2.160156 -5.390625 2.078125 -5.421875 C 1.867188 -5.484375 1.660156 -5.460938 1.453125 -5.359375 C 0.972656 -5.117188 0.585938 -4.742188 0.296875 -4.234375 C 0.015625 -3.734375 -0.09375 -3.21875 -0.03125 -2.6875 C -0.0195312 -2.664062 -0.015625 -2.648438 -0.015625 -2.640625 C -0.00390625 -2.585938 0.00390625 -2.539062 0.015625 -2.5 C 0.109375 -2.257812 0.265625 -2.234375 0.484375 -2.421875 C 0.710938 -2.617188 0.957031 -2.910156 1.21875 -3.296875 C 1.476562 -3.679688 1.710938 -4.046875 1.921875 -4.390625 C 2.128906 -4.734375 2.238281 -4.925781 2.25 -4.96875 Z M 2.25 -4.96875 "/></g></g></g><g fill="#ffffff" fill-opacity="1"><g transform="translate(43.270909, 19.713215)"><g><path d="M 0.90625 -2 L 0.890625 -1.984375 C 0.148438 -1.878906 -0.359375 -1.96875 -0.640625 -2.25 C -0.921875 -2.539062 -0.976562 -2.96875 -0.8125 -3.53125 C -0.664062 -3.96875 -0.453125 -4.359375 -0.171875 -4.703125 C -0.0859375 -4.828125 0.0078125 -4.925781 0.125 -5 C 0.238281 -5.082031 0.367188 -5.140625 0.515625 -5.171875 C 0.585938 -5.191406 0.6875 -5.191406 0.8125 -5.171875 C 0.851562 -5.160156 0.894531 -5.148438 0.9375 -5.140625 C 1 -5.171875 1.070312 -5.210938 1.15625 -5.265625 C 1.164062 -5.285156 1.191406 -5.300781 1.234375 -5.3125 C 1.390625 -5.40625 1.5625 -5.460938 1.75 -5.484375 C 1.832031 -5.492188 1.910156 -5.503906 1.984375 -5.515625 C 2.296875 -5.523438 2.539062 -5.4375 2.71875 -5.25 C 2.90625 -5.070312 3.003906 -4.832031 3.015625 -4.53125 C 3.015625 -4.351562 2.984375 -4.175781 2.921875 -4 C 2.515625 -2.851562 1.859375 -2.1875 0.953125 -2 Z M 1.671875 -4.90625 C 1.265625 -4.863281 0.925781 -4.691406 0.65625 -4.390625 C 0.382812 -4.097656 0.195312 -3.78125 0.09375 -3.4375 C 0 -3.09375 0 -2.820312 0.09375 -2.625 C 0.195312 -2.425781 0.421875 -2.40625 0.765625 -2.5625 C 1.148438 -2.75 1.46875 -3.035156 1.71875 -3.421875 C 1.976562 -3.804688 2.117188 -4.148438 2.140625 -4.453125 C 2.160156 -4.765625 2.003906 -4.914062 1.671875 -4.90625 Z M 1.671875 -4.90625 "/></g></g></g><g fill="#ffffff" fill-opacity="1"><g transform="translate(47.310825, 19.057037)"><g><path d="M 3.0625 -4.453125 C 2.3125 -4.023438 1.765625 -3.6875 1.421875 -3.4375 C 1.203125 -3.269531 1.078125 -3.140625 1.046875 -3.046875 C 1.023438 -2.960938 1.082031 -2.816406 1.21875 -2.609375 C 1.21875 -2.597656 1.226562 -2.582031 1.25 -2.5625 C 1.394531 -2.300781 1.5 -2.035156 1.5625 -1.765625 C 1.695312 -1.179688 1.269531 -0.6875 0.28125 -0.28125 C -0.707031 0.113281 -1.390625 0.222656 -1.765625 0.046875 C -2.148438 -0.117188 -2.300781 -0.378906 -2.21875 -0.734375 C -2.132812 -1.085938 -1.84375 -1.476562 -1.34375 -1.90625 C -0.84375 -2.34375 -0.507812 -2.648438 -0.34375 -2.828125 C -0.175781 -3.003906 -0.144531 -3.1875 -0.25 -3.375 C -0.289062 -3.4375 -0.332031 -3.492188 -0.375 -3.546875 C -0.457031 -3.703125 -0.550781 -3.859375 -0.65625 -4.015625 C -0.832031 -4.285156 -0.9375 -4.570312 -0.96875 -4.875 C -1 -5.1875 -0.925781 -5.457031 -0.75 -5.6875 C -0.582031 -5.914062 -0.289062 -6.066406 0.125 -6.140625 C 0.363281 -6.191406 0.578125 -6.195312 0.765625 -6.15625 C 0.960938 -6.113281 1.132812 -6.003906 1.28125 -5.828125 C 1.394531 -5.703125 1.390625 -5.570312 1.265625 -5.4375 C 1.171875 -5.34375 1.066406 -5.3125 0.953125 -5.34375 C 0.878906 -5.363281 0.804688 -5.398438 0.734375 -5.453125 C 0.734375 -5.460938 0.734375 -5.46875 0.734375 -5.46875 C 0.691406 -5.488281 0.660156 -5.507812 0.640625 -5.53125 C 0.597656 -5.570312 0.554688 -5.59375 0.515625 -5.59375 C 0.359375 -5.675781 0.21875 -5.6875 0.09375 -5.625 C -0.03125 -5.5625 -0.113281 -5.445312 -0.15625 -5.28125 C -0.1875 -5.132812 -0.191406 -4.992188 -0.171875 -4.859375 C -0.128906 -4.691406 -0.0546875 -4.535156 0.046875 -4.390625 C 0.0976562 -4.304688 0.148438 -4.226562 0.203125 -4.15625 C 0.328125 -3.9375 0.421875 -3.789062 0.484375 -3.71875 C 0.554688 -3.644531 0.628906 -3.617188 0.703125 -3.640625 C 0.785156 -3.660156 1.460938 -4.035156 2.734375 -4.765625 C 3.023438 -4.910156 3.132812 -4.804688 3.0625 -4.453125 Z M 0.234375 -1.015625 C 0.566406 -1.191406 0.675781 -1.457031 0.5625 -1.8125 C 0.550781 -1.832031 0.539062 -1.851562 0.53125 -1.875 C 0.476562 -2.0625 0.410156 -2.203125 0.328125 -2.296875 C 0.253906 -2.390625 0.125 -2.367188 -0.0625 -2.234375 C -0.550781 -1.847656 -0.984375 -1.414062 -1.359375 -0.9375 C -1.378906 -0.894531 -1.398438 -0.859375 -1.421875 -0.828125 C -1.421875 -0.828125 -1.425781 -0.820312 -1.4375 -0.8125 C -1.457031 -0.757812 -1.453125 -0.707031 -1.421875 -0.65625 C -1.390625 -0.613281 -1.335938 -0.597656 -1.265625 -0.609375 C -0.742188 -0.609375 -0.242188 -0.742188 0.234375 -1.015625 Z M 0.234375 -1.015625 "/></g></g></g><g fill="#ffffff" fill-opacity="1"><g transform="translate(50.681227, 18.509604)"><g><path d="M 5.265625 -4.84375 C 5.316406 -4.789062 5.332031 -4.734375 5.3125 -4.671875 C 5.300781 -4.609375 5.273438 -4.550781 5.234375 -4.5 C 4.941406 -4.125 4.59375 -3.8125 4.1875 -3.5625 C 3.5 -3.09375 2.753906 -2.753906 1.953125 -2.546875 C 1.335938 -2.367188 0.722656 -2.363281 0.109375 -2.53125 C -0.128906 -2.601562 -0.285156 -2.523438 -0.359375 -2.296875 C -0.460938 -1.992188 -0.566406 -1.695312 -0.671875 -1.40625 C -0.734375 -1.226562 -0.785156 -1.050781 -0.828125 -0.875 C -0.835938 -0.851562 -0.84375 -0.828125 -0.84375 -0.796875 C -0.882812 -0.734375 -0.914062 -0.671875 -0.9375 -0.609375 C -0.957031 -0.554688 -1.007812 -0.515625 -1.09375 -0.484375 C -1.132812 -0.460938 -1.175781 -0.445312 -1.21875 -0.4375 C -1.269531 -0.4375 -1.3125 -0.441406 -1.34375 -0.453125 C -1.375 -0.472656 -1.40625 -0.503906 -1.4375 -0.546875 C -1.476562 -0.585938 -1.5 -0.628906 -1.5 -0.671875 C -1.488281 -0.828125 -1.460938 -0.976562 -1.421875 -1.125 C -1.328125 -1.476562 -1.238281 -1.820312 -1.15625 -2.15625 C -0.9375 -3.007812 -0.695312 -3.859375 -0.4375 -4.703125 C 0.25 -7.035156 0.890625 -9.375 1.484375 -11.71875 C 1.515625 -11.9375 1.585938 -12.144531 1.703125 -12.34375 C 1.785156 -12.476562 1.921875 -12.535156 2.109375 -12.515625 C 2.296875 -12.460938 2.367188 -12.34375 2.328125 -12.15625 C 2.273438 -11.757812 2.210938 -11.359375 2.140625 -10.953125 C 1.710938 -9.109375 1.21875 -7.28125 0.65625 -5.46875 C 0.519531 -5.070312 0.484375 -4.828125 0.546875 -4.734375 C 0.617188 -4.648438 0.742188 -4.660156 0.921875 -4.765625 C 1.097656 -4.878906 1.300781 -5.023438 1.53125 -5.203125 C 1.6875 -5.335938 1.847656 -5.453125 2.015625 -5.546875 C 2.054688 -5.585938 2.085938 -5.617188 2.109375 -5.640625 C 2.304688 -5.796875 2.523438 -5.898438 2.765625 -5.953125 C 2.859375 -5.960938 2.941406 -5.925781 3.015625 -5.84375 C 3.046875 -5.789062 3.050781 -5.742188 3.03125 -5.703125 C 3.019531 -5.660156 2.992188 -5.625 2.953125 -5.59375 C 2.609375 -5.300781 2.257812 -5.023438 1.90625 -4.765625 C 1.726562 -4.640625 1.546875 -4.515625 1.359375 -4.390625 C 1.179688 -4.265625 1.003906 -4.140625 0.828125 -4.015625 C 0.703125 -3.910156 0.597656 -3.796875 0.515625 -3.671875 C 0.285156 -3.359375 0.347656 -3.144531 0.703125 -3.03125 C 0.972656 -2.957031 1.238281 -2.9375 1.5 -2.96875 C 1.757812 -3.007812 2.015625 -3.085938 2.265625 -3.203125 C 3.046875 -3.503906 3.753906 -3.914062 4.390625 -4.4375 C 4.441406 -4.476562 4.488281 -4.515625 4.53125 -4.546875 C 4.65625 -4.648438 4.785156 -4.75 4.921875 -4.84375 C 4.972656 -4.882812 5.03125 -4.90625 5.09375 -4.90625 C 5.164062 -4.914062 5.222656 -4.894531 5.265625 -4.84375 Z M 5.265625 -4.84375 "/></g></g></g><g fill="#ffffff" fill-opacity="1"><g transform="translate(56.037342, 17.639643)"><g><path d="M 2.5 -3.703125 C 2.289062 -3.335938 2.019531 -2.988281 1.6875 -2.65625 C 1.363281 -2.320312 0.972656 -2.070312 0.515625 -1.90625 C 0.0664062 -1.738281 -0.296875 -1.710938 -0.578125 -1.828125 C -0.859375 -1.953125 -0.972656 -2.3125 -0.921875 -2.90625 C -0.804688 -3.507812 -0.613281 -4.097656 -0.34375 -4.671875 C -0.28125 -4.796875 -0.175781 -4.894531 -0.03125 -4.96875 C 0.0703125 -5.019531 0.171875 -5.015625 0.265625 -4.953125 C 0.359375 -4.898438 0.40625 -4.828125 0.40625 -4.734375 C 0.363281 -4.535156 0.304688 -4.335938 0.234375 -4.140625 C 0.171875 -3.953125 0.128906 -3.820312 0.109375 -3.75 C -0.00390625 -3.40625 -0.0664062 -3.050781 -0.078125 -2.6875 C -0.046875 -2.476562 0.21875 -2.503906 0.71875 -2.765625 C 1.226562 -3.035156 1.703125 -3.445312 2.140625 -4 C 2.585938 -4.550781 2.8125 -4.726562 2.8125 -4.53125 C 2.820312 -4.34375 2.71875 -4.066406 2.5 -3.703125 Z M 0.765625 -6.03125 C 0.753906 -6 0.707031 -5.960938 0.625 -5.921875 C 0.539062 -5.878906 0.457031 -5.84375 0.375 -5.8125 C 0.289062 -5.789062 0.21875 -5.796875 0.15625 -5.828125 C 0.101562 -5.859375 0.09375 -5.941406 0.125 -6.078125 C 0.15625 -6.296875 0.203125 -6.488281 0.265625 -6.65625 C 0.335938 -6.832031 0.425781 -7.03125 0.53125 -7.25 C 0.601562 -7.363281 0.691406 -7.429688 0.796875 -7.453125 C 0.910156 -7.472656 1.007812 -7.457031 1.09375 -7.40625 C 1.175781 -7.351562 1.207031 -7.269531 1.1875 -7.15625 C 1.144531 -6.738281 1.003906 -6.363281 0.765625 -6.03125 Z M 0.765625 -6.03125 "/></g></g></g><g clip-path="url(#b29d82eeab)"><g clip-path="url(#35d2c2ab54)"><path fill="#ffffff" d="M 60.53125 8.933594 L 61.277344 8.933594 L 61.277344 9.683594 L 60.53125 9.683594 Z M 60.53125 8.933594 " fill-opacity="1" fill-rule="nonzero"/></g></g></svg>